<svg width="32" height="29" viewBox="0 0 32 29" fill="none" xmlns="http://www.w3.org/2000/svg">
<path fill-rule="evenodd" clip-rule="evenodd" d="M8.08218 4.10112V6.46877L5.25897 6.69666C3.26283 6.85779 1.63455 8.36075 1.31441 10.3376C1.24483 10.7673 1.18156 11.1976 1.12458 11.6287C1.09631 11.8425 1.21037 12.0496 1.40536 12.1419L1.53379 12.2027C10.5816 16.4868 21.4161 16.4868 30.4639 12.2027L30.5923 12.1419C30.7873 12.0496 30.9014 11.8426 30.8731 11.6287C30.8161 11.1977 30.7528 10.7673 30.6833 10.3376C30.3631 8.36075 28.7348 6.85779 26.7387 6.69666L23.9155 6.46877V4.10112C23.9155 2.65738 22.8593 1.43089 21.4315 1.21672L19.3983 0.911745C17.1446 0.573689 14.8531 0.573689 12.5994 0.911745L10.5662 1.21672C9.13842 1.43089 8.08218 2.65738 8.08218 4.10112ZM19.0275 3.38409C17.0196 3.08291 14.9781 3.08291 12.9702 3.38409L10.937 3.68906C10.7331 3.71966 10.5822 3.89487 10.5822 4.10112V6.29281C14.1903 6.08611 17.8074 6.08611 21.4155 6.29281V4.10112C21.4155 3.89487 21.2646 3.71966 21.0607 3.68906L19.0275 3.38409Z" fill="#FB5F1C"/>
<path d="M31.196 15.1173C31.1836 14.8837 30.9391 14.7379 30.7253 14.8325C21.4404 18.9436 10.5573 18.9435 1.27238 14.8325C1.05855 14.7378 0.814081 14.8837 0.801647 15.1172C0.632025 18.303 0.802945 21.5024 1.31441 24.6606C1.63455 26.6375 3.26283 28.1405 5.25897 28.3016L8.37883 28.5534C13.4506 28.9628 18.5471 28.9628 23.6188 28.5534L26.7387 28.3016C28.7348 28.1405 30.3631 26.6375 30.6833 24.6606C31.1947 21.5024 31.3657 18.303 31.196 15.1173Z" fill="#FB5F1C"/>
</svg>
