<svg width="28" height="28" viewBox="0 0 28 28" fill="none" xmlns="http://www.w3.org/2000/svg">
<path d="M4.57331 23.4273C3.33336 22.1906 2.35003 20.721 1.67982 19.1031C1.00961 17.4851 0.665747 15.7506 0.66798 13.9993C0.66798 6.63535 6.63731 0.666016 14.0013 0.666016C21.3653 0.666016 27.3346 6.63535 27.3346 13.9993C27.3346 21.3633 21.3653 27.3327 14.0013 27.3327H0.66798L4.57331 23.4273ZM8.66798 15.3327C8.66798 16.7472 9.22988 18.1037 10.2301 19.1039C11.2303 20.1041 12.5868 20.666 14.0013 20.666C15.4158 20.666 16.7724 20.1041 17.7725 19.1039C18.7727 18.1037 19.3346 16.7472 19.3346 15.3327H8.66798Z" fill="#5EC6E8"/>
</svg>
