<svg width="24" height="30" viewBox="0 0 24 30" fill="none" xmlns="http://www.w3.org/2000/svg">
<path d="M1.044 2.76865L12 0.333984L22.956 2.76865C23.2521 2.83447 23.5169 2.99927 23.7067 3.23586C23.8965 3.47244 23.9999 3.76667 24 4.06998V17.386C23.9999 18.703 23.6747 19.9996 23.0532 21.1607C22.4317 22.3218 21.5332 23.3115 20.4373 24.042L12 29.6673L3.56267 24.042C2.46703 23.3116 1.56861 22.3221 0.947131 21.1613C0.325648 20.0004 0.000315142 18.7041 0 17.3873V4.06998C5.20504e-05 3.76667 0.103517 3.47244 0.293319 3.23586C0.483122 2.99927 0.747916 2.83447 1.044 2.76865ZM13.3333 12.334V5.66732L6.66667 15.0007H10.6667V21.6673L17.3333 12.334H13.3333Z" fill="#F9BD64"/>
</svg>
