<svg width="24" height="33" viewBox="0 0 24 33" fill="none" xmlns="http://www.w3.org/2000/svg">
<path d="M12.1042 0.441643C11.6215 0.230001 11.1461 0.37806 10.8402 0.689538C10.5431 0.992106 10.3945 1.45389 10.4987 1.91948C10.6632 2.65439 10.75 3.41897 10.75 4.20434C10.75 5.99741 10.2981 7.25325 9.5205 8.29433C8.73004 9.35263 7.58581 10.2142 6.1411 11.1864C6.11839 11.2017 6.09724 11.2191 6.07796 11.2386L5.90298 11.4149C2.80326 13.4175 0.75 16.9043 0.75 20.871C0.75 27.0842 5.7868 32.121 12 32.121C18.2132 32.121 23.25 27.0842 23.25 20.871C23.25 19.0467 22.8155 17.3228 22.0439 15.7981C21.9812 15.674 21.8607 15.5895 21.7227 15.5726C21.5847 15.5557 21.4474 15.6088 21.3566 15.7141C21.2391 15.8503 21.124 15.9848 21.0106 16.1173C19.5468 17.8276 18.3655 19.2078 15.9436 19.8244C15.8406 19.8506 15.7766 19.8311 15.7312 19.8027C15.6778 19.7694 15.6193 19.7027 15.5793 19.5963C15.4958 19.3744 15.5316 19.0914 15.7027 18.906C16.998 17.5016 17.9182 15.5953 18.247 12.8835C18.8629 7.80362 16.5541 2.39263 12.1042 0.441643Z" fill="#0EB37C"/>
</svg>
