<svg width="28" height="32" viewBox="0 0 28 32" fill="none" xmlns="http://www.w3.org/2000/svg">
<path fill-rule="evenodd" clip-rule="evenodd" d="M0.578125 3.33331C0.578125 1.9526 1.69741 0.833313 3.07812 0.833313H24.7448C26.1255 0.833313 27.2448 1.9526 27.2448 3.33331V9.99998C27.2448 11.3807 26.1255 12.5 24.7448 12.5H3.07812C1.69741 12.5 0.578125 11.3807 0.578125 9.99998V3.33331ZM3.9992 6.66665C3.9992 5.74617 4.74539 4.99998 5.66586 4.99998C6.58634 4.99998 7.33253 5.74617 7.33253 6.66665C7.33253 7.58712 6.58634 8.33331 5.66586 8.33331C4.74539 8.33331 3.9992 7.58712 3.9992 6.66665ZM10.6659 4.99998C9.74539 4.99998 8.9992 5.74617 8.9992 6.66665C8.9992 7.58712 9.74539 8.33331 10.6659 8.33331C11.5863 8.33331 12.3325 7.58712 12.3325 6.66665C12.3325 5.74617 11.5863 4.99998 10.6659 4.99998Z" fill="#FFB200"/>
<path fill-rule="evenodd" clip-rule="evenodd" d="M0.578125 16.6666C0.578125 15.2859 1.69741 14.1666 3.07812 14.1666H24.7448C26.1255 14.1666 27.2448 15.2859 27.2448 16.6666V23.3333C27.2448 24.714 26.1255 25.8333 24.7448 25.8333H15.2492V28.75H25.6659C26.3562 28.75 26.9159 29.3096 26.9159 30C26.9159 30.6903 26.3562 31.25 25.6659 31.25H2.33253C1.64217 31.25 1.08253 30.6903 1.08253 30C1.08253 29.3096 1.64217 28.75 2.33253 28.75H12.7492V25.8333H3.07812C1.69741 25.8333 0.578125 24.714 0.578125 23.3333V16.6666ZM3.9992 20C3.9992 19.0795 4.74539 18.3333 5.66586 18.3333C6.58634 18.3333 7.33253 19.0795 7.33253 20C7.33253 20.9205 6.58634 21.6666 5.66586 21.6666C4.74539 21.6666 3.9992 20.9205 3.9992 20ZM8.9992 20C8.9992 19.0795 9.74539 18.3333 10.6659 18.3333C11.5863 18.3333 12.3325 19.0795 12.3325 20C12.3325 20.9205 11.5863 21.6666 10.6659 21.6666C9.74539 21.6666 8.9992 20.9205 8.9992 20Z" fill="#FFB200"/>
</svg>
