<svg width="26" height="26" viewBox="0 0 26 26" fill="none" xmlns="http://www.w3.org/2000/svg">
<path d="M17.3006 17.6775L14.3499 23.8775C14.2941 23.9947 14.2106 24.0966 14.1066 24.1743C14.0026 24.252 13.8812 24.3033 13.753 24.3236C13.6247 24.344 13.4935 24.3328 13.3705 24.2911C13.2476 24.2493 13.1366 24.1783 13.0473 24.0841L8.32458 19.0988C8.19841 18.9657 8.03037 18.8801 7.84858 18.8561L1.03925 17.9655C0.9106 17.9485 0.788003 17.9005 0.682034 17.8256C0.576064 17.7507 0.489902 17.6512 0.43098 17.5356C0.372058 17.42 0.342143 17.2917 0.343817 17.162C0.34549 17.0322 0.378701 16.9048 0.440585 16.7908L3.72325 10.7588C3.81052 10.5975 3.8397 10.4111 3.80592 10.2308L2.54858 3.48012C2.52471 3.35234 2.53233 3.22067 2.57078 3.0965C2.60924 2.97234 2.67737 2.85941 2.76929 2.76749C2.8612 2.67558 2.97413 2.60744 3.0983 2.56899C3.22247 2.53053 3.35414 2.52291 3.48192 2.54679L10.2326 3.80412C10.4129 3.83791 10.5993 3.80872 10.7606 3.72145L16.7926 0.438787C16.9067 0.376886 17.0342 0.343703 17.1641 0.342102C17.2939 0.340501 17.4222 0.370531 17.5378 0.429599C17.6535 0.488667 17.753 0.574996 17.8278 0.681132C17.9026 0.787268 17.9505 0.91002 17.9672 1.03879L18.8579 7.84679C18.8819 8.02858 18.9675 8.19662 19.1006 8.32279L24.0859 13.0455C24.1801 13.1348 24.2511 13.2458 24.2929 13.3687C24.3346 13.4917 24.3458 13.6229 24.3254 13.7512C24.3051 13.8794 24.2538 14.0008 24.1761 14.1048C24.0984 14.2088 23.9965 14.2923 23.8793 14.3481L17.6793 17.2988C17.5133 17.3778 17.3796 17.5115 17.3006 17.6775ZM18.3632 20.2468L20.2486 18.3615L25.9059 24.0175L24.0193 25.9041L18.3632 20.2468Z" fill="#5138EE"/>
</svg>
